<svg width="192" height="35" viewBox="0 0 192 35" fill="none" xmlns="http://www.w3.org/2000/svg">
<path d="M0.93 1.22H6.88L10.835 17.11H10.905L16.085 1.22H21.16L26.305 17.53H26.375L30.54 1.22H36.07L28.825 26H23.96L18.5 8.85H18.43L12.97 26H8.28L0.93 1.22ZM47.2312 23.865H47.1612C46.5778 24.775 45.7962 25.4283 44.8162 25.825C43.8595 26.2217 42.8445 26.42 41.7712 26.42C40.9778 26.42 40.2078 26.3033 39.4612 26.07C38.7378 25.86 38.0962 25.5333 37.5362 25.09C36.9762 24.6467 36.5328 24.0983 36.2062 23.445C35.8795 22.7917 35.7162 22.0333 35.7162 21.17C35.7162 20.19 35.8912 19.3617 36.2412 18.685C36.6145 18.0083 37.1045 17.4483 37.7112 17.005C38.3412 16.5617 39.0528 16.2233 39.8462 15.99C40.6395 15.7333 41.4562 15.5467 42.2962 15.43C43.1595 15.3133 44.0112 15.2433 44.8512 15.22C45.7145 15.1967 46.5078 15.185 47.2312 15.185C47.2312 14.2517 46.8928 13.5167 46.2162 12.98C45.5628 12.42 44.7812 12.14 43.8712 12.14C43.0078 12.14 42.2145 12.3267 41.4912 12.7C40.7912 13.05 40.1612 13.54 39.6012 14.17L36.8012 11.3C37.7812 10.39 38.9245 9.71333 40.2312 9.27C41.5378 8.80333 42.8912 8.57 44.2912 8.57C45.8312 8.57 47.0912 8.76833 48.0712 9.165C49.0745 9.53833 49.8678 10.0983 50.4512 10.845C51.0578 11.5917 51.4778 12.5133 51.7112 13.61C51.9445 14.6833 52.0612 15.9317 52.0612 17.355V26H47.2312V23.865ZM45.9362 18.545C45.5395 18.545 45.0378 18.5683 44.4312 18.615C43.8478 18.6383 43.2762 18.7317 42.7162 18.895C42.1795 19.0583 41.7128 19.3033 41.3162 19.63C40.9428 19.9567 40.7562 20.4117 40.7562 20.995C40.7562 21.625 41.0245 22.0917 41.5612 22.395C42.0978 22.6983 42.6578 22.85 43.2412 22.85C43.7545 22.85 44.2445 22.78 44.7112 22.64C45.2012 22.5 45.6328 22.3017 46.0062 22.045C46.3795 21.7883 46.6712 21.4617 46.8812 21.065C47.1145 20.6683 47.2312 20.2017 47.2312 19.665V18.545H45.9362ZM65.155 28.765C64.805 29.675 64.4667 30.48 64.14 31.18C63.8133 31.88 63.3933 32.4633 62.88 32.93C62.39 33.42 61.76 33.7817 60.99 34.015C60.22 34.2717 59.205 34.4 57.945 34.4C56.5917 34.4 55.285 34.19 54.025 33.77L54.725 29.465C55.5183 29.815 56.335 29.99 57.175 29.99C57.7583 29.99 58.2367 29.92 58.61 29.78C58.9833 29.6633 59.2867 29.4767 59.52 29.22C59.7767 28.9867 59.9867 28.695 60.15 28.345C60.3133 27.995 60.4883 27.5867 60.675 27.12L61.06 26.14L53.605 8.99H59.275L63.65 20.225H63.72L67.465 8.99H72.855L65.155 28.765ZM84.4282 13.995C83.6582 13.0383 82.6432 12.56 81.3832 12.56C80.9399 12.56 80.5082 12.665 80.0882 12.875C79.6682 13.085 79.4582 13.4467 79.4582 13.96C79.4582 14.38 79.6682 14.695 80.0882 14.905C80.5316 15.0917 81.0799 15.2667 81.7332 15.43C82.4099 15.57 83.1216 15.7333 83.8682 15.92C84.6382 16.0833 85.3499 16.3517 86.0032 16.725C86.6799 17.0983 87.2282 17.6117 87.6482 18.265C88.0916 18.895 88.3132 19.7467 88.3132 20.82C88.3132 21.9167 88.0682 22.8267 87.5782 23.55C87.1116 24.25 86.5049 24.8217 85.7582 25.265C85.0116 25.685 84.1716 25.9767 83.2382 26.14C82.3049 26.3267 81.3832 26.42 80.4732 26.42C79.2832 26.42 78.0816 26.2567 76.8682 25.93C75.6549 25.58 74.6282 24.9733 73.7882 24.11L76.9732 20.575C77.4632 21.1817 77.9999 21.6483 78.5832 21.975C79.1899 22.2783 79.8899 22.43 80.6832 22.43C81.2899 22.43 81.8382 22.3483 82.3282 22.185C82.8182 21.9983 83.0632 21.6717 83.0632 21.205C83.0632 20.7617 82.8416 20.435 82.3982 20.225C81.9782 19.9917 81.4299 19.805 80.7532 19.665C80.0999 19.5017 79.3882 19.3383 78.6182 19.175C77.8716 18.9883 77.1599 18.72 76.4832 18.37C75.8299 18.02 75.2816 17.53 74.8382 16.9C74.4182 16.2467 74.2082 15.3833 74.2082 14.31C74.2082 13.3067 74.4066 12.4433 74.8032 11.72C75.2232 10.9967 75.7599 10.4017 76.4132 9.935C77.0899 9.46833 77.8599 9.13 78.7232 8.92C79.5866 8.68667 80.4616 8.57 81.3482 8.57C82.4682 8.57 83.5999 8.73333 84.7432 9.06C85.8866 9.38667 86.8549 9.97 87.6482 10.81L84.4282 13.995Z" fill="black"/>
<path d="M106.821 6.05H99.7509V1.22H119.351V6.05H112.281V26H106.821V6.05ZM116.932 17.495C116.932 16.1417 117.177 14.9167 117.667 13.82C118.157 12.7233 118.822 11.79 119.662 11.02C120.525 10.2267 121.529 9.62 122.672 9.2C123.839 8.78 125.075 8.57 126.382 8.57C127.689 8.57 128.914 8.78 130.057 9.2C131.224 9.62 132.227 10.2267 133.067 11.02C133.93 11.79 134.607 12.7233 135.097 13.82C135.587 14.9167 135.832 16.1417 135.832 17.495C135.832 18.8483 135.587 20.0733 135.097 21.17C134.607 22.2667 133.93 23.2117 133.067 24.005C132.227 24.775 131.224 25.37 130.057 25.79C128.914 26.21 127.689 26.42 126.382 26.42C125.075 26.42 123.839 26.21 122.672 25.79C121.529 25.37 120.525 24.775 119.662 24.005C118.822 23.2117 118.157 22.2667 117.667 21.17C117.177 20.0733 116.932 18.8483 116.932 17.495ZM122.182 17.495C122.182 18.7783 122.544 19.8167 123.267 20.61C124.014 21.4033 125.052 21.8 126.382 21.8C127.712 21.8 128.739 21.4033 129.462 20.61C130.209 19.8167 130.582 18.7783 130.582 17.495C130.582 16.2117 130.209 15.1733 129.462 14.38C128.739 13.5867 127.712 13.19 126.382 13.19C125.052 13.19 124.014 13.5867 123.267 14.38C122.544 15.1733 122.182 16.2117 122.182 17.495Z" fill="#B82020"/>
<path d="M139.589 1.22H147.779C149.763 1.22 151.641 1.44167 153.414 1.885C155.211 2.32833 156.774 3.05167 158.104 4.055C159.434 5.035 160.484 6.31833 161.254 7.905C162.048 9.49167 162.444 11.4167 162.444 13.68C162.444 15.6867 162.059 17.46 161.289 19C160.543 20.5167 159.528 21.8 158.244 22.85C156.961 23.8767 155.479 24.6583 153.799 25.195C152.119 25.7317 150.358 26 148.514 26H139.589V1.22ZM145.049 20.96H147.884C149.144 20.96 150.311 20.8317 151.384 20.575C152.481 20.3183 153.426 19.8983 154.219 19.315C155.013 18.7083 155.631 17.9267 156.074 16.97C156.541 15.99 156.774 14.8 156.774 13.4C156.774 12.1867 156.541 11.1367 156.074 10.25C155.631 9.34 155.024 8.59333 154.254 8.01C153.484 7.42667 152.574 6.995 151.524 6.715C150.498 6.41167 149.413 6.26 148.269 6.26H145.049V20.96ZM164.817 13.61C164.817 11.6267 165.144 9.83 165.797 8.22C166.474 6.61 167.407 5.245 168.597 4.125C169.787 2.98167 171.199 2.10667 172.832 1.5C174.465 0.893333 176.25 0.59 178.187 0.59C180.124 0.59 181.909 0.893333 183.542 1.5C185.175 2.10667 186.587 2.98167 187.777 4.125C188.967 5.245 189.889 6.61 190.542 8.22C191.219 9.83 191.557 11.6267 191.557 13.61C191.557 15.5933 191.219 17.39 190.542 19C189.889 20.61 188.967 21.9867 187.777 23.13C186.587 24.25 185.175 25.1133 183.542 25.72C181.909 26.3267 180.124 26.63 178.187 26.63C176.25 26.63 174.465 26.3267 172.832 25.72C171.199 25.1133 169.787 24.25 168.597 23.13C167.407 21.9867 166.474 20.61 165.797 19C165.144 17.39 164.817 15.5933 164.817 13.61ZM170.487 13.61C170.487 14.7767 170.662 15.85 171.012 16.83C171.385 17.7867 171.91 18.6267 172.587 19.35C173.264 20.05 174.069 20.5983 175.002 20.995C175.959 21.3917 177.02 21.59 178.187 21.59C179.354 21.59 180.404 21.3917 181.337 20.995C182.294 20.5983 183.11 20.05 183.787 19.35C184.464 18.6267 184.977 17.7867 185.327 16.83C185.7 15.85 185.887 14.7767 185.887 13.61C185.887 12.4667 185.7 11.405 185.327 10.425C184.977 9.445 184.464 8.605 183.787 7.905C183.11 7.18167 182.294 6.62167 181.337 6.225C180.404 5.82833 179.354 5.63 178.187 5.63C177.02 5.63 175.959 5.82833 175.002 6.225C174.069 6.62167 173.264 7.18167 172.587 7.905C171.91 8.605 171.385 9.445 171.012 10.425C170.662 11.405 170.487 12.4667 170.487 13.61Z" fill="#FF5555"/>
</svg>
